<svg width="68" height="73" viewBox="0 0 68 73" fill="none" xmlns="http://www.w3.org/2000/svg"><path d="M47.243 52.136c-.938 1.007-1.797 2.092-2.657 3.1-.39.387-1.328.542-2.031 0 .078-.078.156-.233.234-.155 1.25.232 2.032-.698 2.422-1.55.391-.698.626-1.24 1.329-1.628.234-.155.39-.542.625-.852-.39 0-.703 0-1.016.077-.312.078-.703.155-1.016 0-.156-.078-.469-.155-.469-.388.079-.31.391-.155.547-.155 1.798.078 3.126-.62 3.83-2.325.077-.31.39-.387.546-.775-1.484.233-2.969.698-4.376-.155 1.25-.077 2.5-.077 3.751-.465.781-.233 1.407-.465 1.875-1.318.782-1.472 1.72-2.867 2.657-4.34-.781-.078-1.016.465-1.172.853-.234.465-.547.852-.86 1.24-.156.232-.703.31-.39.852 0 .078-.235.233-.39.31-1.954.775-3.908 1.628-6.174 1.163-.234-.078-.469 0-.469-.31.079-.31.313-.078.547-.078 1.563.078 3.048-.155 4.376-.852.703-.388.938-1.395 1.328-2.325h-1.719c-.156 0-.312-.078-.312-.233 0-.155.156-.077.312-.077.626-.078 1.25-.233 1.876-.388.312-.078.468-.31.625-.62.312-.853.703-1.628 1.094-2.403.078-.232.234-.31.469-.465.078 1.24-.782 2.093-1.094 3.333.703-.465 1.328-.465 1.953-.697.703-.233.469-1.24 1.25-1.396.157.388-.312.62-.234.93 1.172-.077 1.172-.077 1.25-1.24.156-1.395 1.172-2.635 2.422-2.945h.157c.312-.155.468-.62 1.015-.31.547.31.938.698 1.016 1.395a1.9 1.9 0 00.313.698c1.172 1.24 1.172 1.472.156 2.712-.234.31-.156.465 0 .698 1.25 1.318 1.406 2.868.781 4.495-.625 1.706-2.422 3.023-4.375 1.24-.391 1.86-.782 3.643-1.172 5.504-.47 2.48-1.016 4.96-1.407 7.518 0 .155-.156.387-.156.542.39 2.093-1.328 2.48-2.657 3.023-1.172.543-2.5.775-3.75 1.085-1.407.233-2.813.31-4.22.543-1.172.155-2.344.155-3.594.155-3.204.077-6.33-.388-9.455-1.085-1.094-.233-2.266-.31-3.203-1.008-.625-.465-1.172-1.085-2.11-1.163-.313 0-.235-.387-.235-.62-.078-.775.157-1.472.157-2.247 0-2.093-.235-4.186-.313-6.278-.078-2.016-.312-4.03-.312-6.046 0-1.085-.313-2.17-.313-3.255 0-.155-.156-.388-.234-.62-.391.775-.86 1.317-.86 2.092 0 .465-.312.853-.547 1.24-1.015 1.86-1.406 3.876-1.563 5.969-.078 1.395-.156 2.867-.156 4.262 0 2.248.157 4.573.157 6.821v3.023c0 .155 0 .387-.079.542-.078.078-.078.31-.234.233-.078 0-.235-.155-.235-.233-.078-.31 0-.62-.078-.93 0-2.17 0-4.418-.078-6.588-.078-1.938.078-3.875 0-5.735-.078-1.628.391-3.178.782-4.728.39-1.318.937-2.558 1.25-3.876.234-.852.938-1.317 1.172-2.17.39-1.395.938-2.713 1.406-4.03v-.543c-.625 1.628-1.172 2.946-2.422 3.953-.234.233-.547.31-.86.31-1.093 0-2.11.155-3.125-.542-.469-.31-.86-.776-1.25-1.318 0 .31-.078.542 0 .62.625 1.085.703 2.403.938 3.565.546 2.636 1.406 5.27 1.25 8.061-.078 2.17-.078 4.34-.157 6.51-.078 1.938-.234 3.876-.39 5.891v.155c.234 1.938-.703 3.178-2.657 3.333-.938.078-1.64.465-2.266 1.163-.547.697-.469.93.235 1.472.937.775 2.031.775 3.203.775.938 0 1.954.155 2.891-.077 1.016-.31 2.188-.078 3.126-.775.625-.465.703-.853.312-1.473-.703-1.007-1.328-2.093-2.813-2.248 1.172-.465 1.954-.154 2.813.93.391.466.703.93 1.094 1.473.313.465.078.853-.156 1.163-.703.852-1.64 1.24-2.657 1.395-1.953.31-3.907.543-5.938.465-1.172-.078-2.188-.62-3.048-1.395-.234-.233-.468-.698-.234-1.008.703-1.162 1.563-2.325 3.126-2.402.937-.078 1.797-.31 2.266-1.24.156-.233.312-.466.234-.698-.234-1.628.156-3.333.313-4.96.078-.62.156-1.24.156-1.938 0-2.713.156-5.348.078-8.061 0-1.473-.469-2.945-1.016-4.34-.156-.388-.469-.776-.078-1.24.156-.156-.234-.543-.313-.853-.546-1.705-.78-3.41-1.093-5.193-.235-1.55-.313-3.178-.547-4.805-.235-2.093-.47-4.108-.313-6.201 0-.853-.469-1.628-.234-2.48.312-1.085-.235-2.17.156-3.256.078-.232.078-.542.234-.697.078-.155.235-.388.47-.31.233.155.312.31.155.62-.625 1.24-.312 2.48-.312 3.798 1.016-.698 2.031-1.008 3.125-1.163 1.094-.155 2.188-.233 3.282-.387 1.407-.078 2.422.31 3.204 1.55-.156-1.163.469-2.326.078-3.488-.078-.31-.156-.465-.469-.388-1.563.31-3.204.465-4.766.543-1.25.077-2.423-.31-3.516-.698-.47-.155-.782-.697-.704-1.24.078-.542.547-.93 1.016-1.085.313-.077.625-.155 1.016-.077 1.25.155 2.5-.31 3.75-.078 1.485.233 3.126.233 4.376 1.24.156.155.547.31.235.543-.547.465-.235 1.007-.235 1.55 0 1.705 0 3.41.078 5.27.625-.232.86-.697 1.329-.775.234-.077.234-.387.234-.62.078-1.782.625-2.093 2.344-1.472.469.232 1.094-.078 1.563.232 0 0 .234-.077.234-.155.235-.698 1.094-.775 1.563-1.24.156-.155.313-.078.469 0 .86.232 1.64.465 2.5.698.235.077.469.31.547.62.157-.465.157-.93.313-1.318.156-.62.547-1.163 1.406-1.085.469.077.938 0 1.328 0a.79.79 0 01.235.077c.313-1.007 1.094-.387 1.64-.387.392 0 .548-.388.938-.388 0 .155-.234.233-.078.31.547.233.625.775.704 1.085.546-.542 1.093-1.007 1.64-1.55-.78-.387-1.562-.232-2.344.155.078-.387-.234-.31-.468-.31-3.36 0-6.798 0-10.08.853-1.641.387-3.204.775-4.61 1.55-.313.155-.704.31-.86-.078-.234-.387.235-.542.469-.697 1.485-.775 3.126-1.163 4.766-1.395.782-.078 1.563-.31 2.344-.465.626-.155 1.329-.155 1.954-.155 1.719-.078 3.516-.155 5.235-.155h.547c.547.077 1.094.465 1.328-.388.079-.31.625-.387.938-.232.39.155.938.31 1.016.852 0 .078 0 .155.078.388 1.328-1.085 2.5-2.17 3.75-3.1 1.876-1.396 3.204-3.256 4.376-5.038 1.407-2.093 2.97-4.03 4.063-6.356.079-.155.157-.233.079-.388-.626-1.24 0-2.325.547-3.41.234-.542.625-1.007.859-1.55.703-1.473 1.875-2.17 3.438-2.48 1.094-.233 1.875.387 2.735.775 1.875.697 2.578 2.015 1.719 4.34-.625 1.55-1.329 3.023-2.344 4.34-.39.543-.86.93-1.563 1.24-.86.388-1.406 1.318-1.875 2.17-1.485 2.481-2.5 5.116-3.282 7.907-.234.775-.313 1.55-.547 2.325-.156.387-.078.775.625.852.86.078 1.641 1.24 1.797 2.093.39 2.015-.234 3.953-.547 5.89-.078.543 0 1.086-.234 1.628-.078.233 0 .62-.39.62-.313 0-.548-.31-.47-.697.157-.775 0-1.628.313-2.403.234-.62.234-1.24.234-1.86-.937.31-1.953.697-2.89 1.008-1.876.62-3.908.697-5.861.775-1.72 0-3.516 0-5.235.077-2.657.078-5.235-.232-7.892-.077-2.11.155-4.141-.155-6.251-.62-.86-.155-1.563-.698-2.422-.853-.547-.078-1.094 0-1.641-.388-.313-.232-.39.31-.39.543 0 1.163-.235 2.248-.313 3.333-.157 2.635-.547 5.27-1.407 7.75-.234.62 0 1.086 0 1.628.078 1.085.156 2.17.235 3.333 0 2.48.234 4.883.547 7.286v.852l.234 6.743c0 .465.234.775.625.853.625.155 1.016.62 1.485 1.008.625.62 1.484.93 2.266 1.007 1.172.233 2.344.543 3.516.698.703.077 1.484 0 2.188.232 1.562.388 3.125.155 4.688.233 1.797.155 3.516-.388 5.235-.465 1.563-.078 3.047-.543 4.532-.853.938-.155 1.719-.775 2.578-1.163.079-.077.235-.154.235-.31.469-1.937 1.094-3.797 1.172-5.813.469-1.55.703-3.1 1.016-4.65.078-.31.078-.698.156-1.008.156-.387.625-.697-.078-1.007v-.155c.938-.853.703-2.093.703-3.1.078-1.163.156-2.248.547-3.333.078-.155.078-.31-.234-.388-.704-.077-1.094-.62-1.25-1.24-.157-.388-.313-.388-.704-.31-1.016.233-1.328 1.008-1.719 1.86-.625 1.24-1.406 2.403-2.188 3.643.782.388 1.407-.31 2.032-.31-.547.542-1.328.93-2.032 1.163-.547.155-.86.465-1.172.93-.39.62-.86 1.24-1.25 1.937.86.155 1.407-.387 2.032-.542 1.875-.543 2.344-2.325 3.125-3.72.469-.853 1.016-1.706 1.25-2.713.078-.233.235-.233.47-.31-.079.93-.548 1.705-.86 2.48-.391.93-1.172 1.705-1.329 2.558-.312 1.317-1.719 1.937-1.875 3.255.469.155.938-.155 1.094-.543.234-.465.547-.852.938-1.317.156.465-.235.852-.157 1.24.547-.078.391-.62.625-.853.079-.077.157-.387.391-.232s-.078.232-.078.387c-.156.465-.547.775-.86 1.085-.078.078-.156.155-.156.233-.703.078-.625.93-1.016 1.24-.234.155-.39.465-.625.698.078-.388.157-.698.235-1.086-1.172 0-1.25.543-2.422 2.48 1.093-.154 2.031-.464 2.734-1.24.078.93.078.93-.781 1.163-.703.233-1.407.465-2.11.775-.234.078-.39.233-.547.388-.312.232-.781.697-.625.93.235.31.625-.155 1.016-.233.469-.077.938-.077 1.25-.542.156-.233.39-.155.625-.078-.156.543-.625.93-.86 1.396-.077.077-.156.154-.234.077-.625-.31-2.344 0-2.89.62l-1.642 1.86c.704.155.704-.697 1.329-.697-.625.852-1.172 1.627-2.032 2.17-.156.077-.39.31-.469.155-.468-.62-.937-.078-1.406 0-1.016.077-1.954-.078-2.891-.543.703-.155 1.563.155 2.188-.31l.156.155c.156.233.39.155.625.078 1.094-.775 2.266-1.55 3.204-2.79-.782.077-1.407.155-2.11.31-.234.077-.469.155-.703-.078-.078-.077-.157-.155-.078-.31.156-.233.39-.232.625-.232.781-.156 1.64.077 2.344-.31.469-.233.86-.388 1.094-.853.078-.233.468-.233.312-.543-.156-.31-.469-.31-.86-.31 1.563-.232 2.345-1.24 2.97-2.557-.469-.155-.86.077-1.25.232-.391-.465-.86-.387-.938-1.007.625-.156 1.328-.233 1.953-.466a3.031 3.031 0 001.954-1.937c-.86.232-1.563.542-2.344.775-.938.232-1.328.852-1.563 1.628zm-30.63-24.958c-.234 1.318-.156 2.713.078 4.108.235 2.015.313 4.03.782 5.968.312 1.085.469 2.248 1.172 3.178 1.25 1.628 3.907 1.473 5-.31a5.12 5.12 0 00.704-1.473c1.25-3.488 1.719-7.13 1.64-10.85-3.203 1.162-6.25.774-9.376-.62zm30.083-4.96c-.234.232-.469.387-.625.542-.86 1.008-1.719 1.938-2.578 2.946a.43.43 0 01-.391.232c-.156-.077-.156-.232-.078-.31.547-.62.468-1.163-.313-1.628-.078-.077-.156-.155-.156-.232-.078-.543-.39-.543-.86-.388.235.465.391.93.313 1.473-.078.775-.313 1.473-.782 2.093-.156.232-.39.465-.703.232-.312-.232 0-.387.156-.542.157-.31.391-.62.47-.93.312-1.085 0-1.783-.704-2.093-.312-.078-.469.077-.781.077-.86 0-1.172.465-1.329 1.706-.078.697.547.542.938.62.156 0 .313.155.39.232.313.155.938 2.015.86 2.325-.078.31-.234.31-.469.078-.312-.31-.312-.775-.468-1.163-.391-1.007-1.25-1.24-2.11-.62-.547.388-.782.93-.938 1.55-.078.31-.234.465-.469.388-.312-.078-.234-.388-.156-.543.078-.31.313-.697.469-1.007.86-1.318.39-2.248-1.094-2.403-.156 0-.313 0-.469-.155-.547-.387-.937.155-1.25.388-.313.155-.313.62-.078 1.007.469.775.547 1.705.469 2.48-.078.93.39.853.86.93 1.796.155 3.515.465 5.313.155 1.328-.232 2.578.465 3.906.078.938-.31 1.954.078 2.97.078 1.64 0 3.281-.155 4.922-.155 2.11 0 4.22-.543 6.251-1.396 1.797-.697 2.188-2.867.782-4.108-.547-.465-.938-.387-1.094.31-.235 1.008-.625 2.093-.47 3.178.079.31-.155.698-.39.698-.312 0-.39-.31-.469-.62-.078-.465.157-.93.157-1.395-.47 0-.782.31-1.172.542-1.173.698-2.266 1.473-3.595 1.938-.156.077-.312.155-.468 0-.157-.078-.157-.233-.079-.31.157-.155.391-.388 0-.543-.156-.077-.468.155-.547.31-.156.465-.39.62-.86.465-.155-.077-.233.078-.312.155-.547.543-.703.078-.781-.387-.078-.388-.156-.698-.078-1.085.078-.388-.078-.465-.39-.543-1.017-.387-2.11-.62-3.204-.232.234.542.546 1.007.78 1.472.079.233.313.465-.077.62-.313.155-.47 0-.625-.387-.157-.465-.47-.853-.704-1.24-.39-.62-.937-.698-1.484-.233-.547.543-.938 1.163-1.25 1.86-.078.233-.235.388-.47.31-.312-.077-.155-.31-.077-.542.234-.388.39-.853.625-1.24.703-1.085 1.484-2.015 2.969-1.24.078.077.156.077.234-.078.235-.62.86-.465 1.329-.465.39 0 .781-.077 1.25-.077-.39-.776-.703-1.938-1.016-3.178zM62.792 9.739c0-.232-.156-.232-.312-.232a3.157 3.157 0 01-1.563-.698 3.903 3.903 0 00-1.485-.775c-.39-.155-.547-.078-.78.233-.47.697-.86 1.472-1.33 2.17a176.967 176.967 0 01-4.375 6.2c-.234.388-.313.62-.156.93.312.775.39 1.706.781 2.48.547 1.163.469 1.086 1.563.31 1.016-.697 1.875-1.55 3.047-2.015.391-.155.547-.31.703-.775.547-1.55.938-3.1 1.798-4.495.625-1.008 1.328-2.015 1.953-3.1 0 0 .156-.078.156-.233zm-1.797-2.558c-.234.31-.312.465.157.698.859.388 1.797.465 2.578.853 1.328.62 1.328-.388 1.719-1.008.078-.078.156-.233.156-.31.547-1.008 1.172-2.015 1.329-3.255.078-.388 0-.388-.313-.31-1.25.31-2.422-.155-3.516-.62-.547-.233-.938-.388-.703.465.078.387-.47.852 0 1.162.547.388.078.465-.157.543-.547.232-.625.465-.234.775.156.155.313.155.234.387-.078.31-.39.155-.781.155.547.31.625.62.234.93-.547.31-.39-.465-.703-.465zM22.317 27.953c.703-.31 1.563-.077 2.266-.387.625-.233.782-.698.47-1.318-.392-.697-.939-1.085-1.72-1.007H22.24c-1.485.077-2.97 0-4.297.775-.157.077-.547.155-.47.465 0 .31.313.387.548.542 1.25.698 2.89.465 4.297.93zM61.23 43.997c-.078-.93-.625-1.55-1.25-2.17-.547-.465-.938-.465-1.329.155-1.016 1.318-.547 2.558.078 3.798.39.775 1.25.93 1.641.31.547-.62.703-1.395.86-2.093zM25.834 21.133c-.547-.543-1.329-.465-1.954-.698-1.563-.542-3.125-.62-4.688 0-.235.078-.39.31-.625-.077-.157-.233-.625-.155-.782.155-.156.387.157.387.47.542 1.64.93 3.437.93 5.156.465.703-.077 1.563.078 2.422-.387zM66.62 2.84c.313.078.469.078.625-.155.078-.233-.078-.388-.156-.543-.86-1.24-2.266-1.55-3.594-1.86-.547-.155-1.25.388-1.094.698.156.387.312.775.781 1.007 1.094.543 2.11 1.318 3.438.853zM29.27 27.565c.157.155.938-.775.626.387-.078.233.156.31.312.31.782.155 1.485.388 2.266.543.782.155.782-.155.782-.698 0-.31-.235-.775-.313-.775-.938.465-.781-.465-1.016-.775-.156-.155 0-.465-.39-.62-.704-.232-1.407-.31-2.032-.077-.547.232-.235.93-.235 1.472v.233zm27.114 12.556c0 .31.078.62.235.93.156.31.547.233.859.233.235 0 .078-.233 0-.388-.469-1.628-.078-3.255 1.72-3.953.155-.077.155-.077.077-.232-.078-.078.078-.31-.078-.233-.469.388-.938-.155-1.406.155-.391.233-.704.62-.938 1.008-.39.775-.234 1.705-.469 2.48zm1.797-.078c.078 0 .235 0 .313-.077.469-.465.938-.853 1.484 0 .079.155.235.077.391-.078.39-.387.547-.697.078-1.162-.312-.31-.547-.698-1.016-.775-.39-.078-.78.232-.937.542-.235.465-.469.93-.313 1.55zm-.39-18.679c.078-.465.156-1.007.39-1.472.078-.155.157-.31 0-.543-.156-.233-.312 0-.469 0-.78.155-1.172.698-1.64 1.24-.079.078-.235.233-.079.31.079.078.235 0 .313-.077.703-.698.703-.698 1.094.155.156.155.156.31.39.387zm-7.97 22.632c.078.078.156.078.156.155.703-.775 1.406-1.627 2.266-2.557-1.641.31-1.641 1.705-2.422 2.402zm3.203-16.354c.625-.31 1.172-.542 1.72-.852.156-.078.312-.233.156-.388-.079-.077-.235-.077-.313-.077-.156.62-.781.31-1.172.62-.39.155-.547.31-.39.697zM49.9 22.218c.468-.388.468-1.008.703-1.55.078-.233-.313-.155-.39-.31-.079-.155-.157.155-.157.232.39.62-.156 1.085-.156 1.628zm9.845-18.524c-.469.542-.547.93-.703 1.317-.078.155-.157.31.078.31.156 0 .39.078.469-.155 0-.387.078-.852.156-1.472zm-3.047 19.299c.703-.078.86-.465.937-.853 0-.155-.078-.155-.234-.155-.547 0-.313.543-.703 1.008zm.39 1.24c-.156.31-.39.62-.547.93-.156.233.079.388.157.465.234.155.234-.155.312-.232.157-.388 0-.776.078-1.163zM9.406 37.73c-.481.83-1.238 1.358-1.995 1.885-.687.453-1.375.377-1.994-.226-.62-.678-1.238-1.357-1.582-2.337-.138 1.056.344 1.81.825 2.563.206.302.55.453.138.83-.138.15 0 .301.068.527a31.549 31.549 0 011.032 8.82c0 2.262.069 4.448.138 6.71 0 1.432-.07 2.864-.138 4.296 0 .302-.069.679-.413.679-.412 0-.275-.452-.275-.754.138-1.734.344-3.468.207-5.201-.138-2.036-.138-4.071-.138-6.107 0-2.487-.344-4.9-.757-7.236-.137-.604-.619-1.056-.687-1.734-.138-1.056-.62-1.96-.688-3.091-.069-1.056-.275-2.11-.413-3.242-.137-.829-.413-1.583-.344-2.487.069-.905-.275-1.81-.275-2.714.069-1.81.138-3.619.275-5.428.069-1.13.207-2.337.344-3.468.206-1.733 1.307-2.713 2.958-2.864.825-.076 1.72-.151 2.476-.151 1.513.075 3.026.302 4.402.98.344.15.482.452.413.83-.207 1.356-.344 2.713-.55 4.145-.276 2.413-.482 4.825-.895 7.237-.275 1.508-.412 3.091-.756 4.523-.482 2.036-.826 4.071-1.789 5.88-1.031 2.111-1.238 4.448-1.444 6.71-.206 2.638-.275 5.201-.55 7.84-.138 1.507-.275 2.94-.207 4.447.07.453.344.83.138 1.357-.069.302.206.151.344.226 1.17 0 2.132.679 2.958 1.508.412.452.343 1.583-.276 1.96-.963.603-2.063 1.055-3.164 1.206C5.967 66 5.142 66 4.385 66c-1.513 0-2.751-.754-3.99-1.508-.55-.301-.481-.98-.068-1.507 1.238-1.659 2.889-1.584 4.608-1.357.207 0 .344.15.275.377-.068.301-.275.527-.619.452-.344-.15-.688-.075-1.031-.15-.963-.302-1.789.15-2.477.828-.481.453-.344.905.138 1.206 1.65.905 3.301 1.282 5.159.98.963-.15 1.788-.452 2.682-.904.688-.377.826-1.13.207-1.583-.895-.679-1.858-1.206-3.027-.83-.138.076-.344.378-.481 0-.07-.225 0-.527.206-.527.344-.075.206-.15.206-.452-.069-1.131-.206-2.262 0-3.393.207-.904.07-1.809.138-2.713.206-1.96.344-3.996.481-5.956.07-1.508.275-3.015.482-4.523.275-1.583.481-3.317 1.444-4.674.62-.678.482-1.357.688-2.035zm2.751-18.091c-.963.301-1.857.753-2.888.678-.344 0-.688-.226-1.032-.15-1.307.074-2.545-.152-3.783-.68-.413-.15-.757-.075-.963.528-.413 1.433-.62 2.865-.482 4.373 0 .15-.069.377.138.452.206.075.344-.075.413-.226.343-.453.825-.679 1.306-.83 1.239-.376 2.477-.226 3.783 0 .62.076 1.239.378 1.789.755.619.452.825 1.13.756 1.884-.068.679-.55.83-1.031.98-.482.15-.963.15-1.445.226-1.926.226-3.714-.98-5.64-.754v2.186c.757-1.13 1.032-1.281 1.72-.904.481.226.275.754.275 1.13 0 .378-.344.528-.482.68-.412.452-.825-.152-1.238 0-.275 1.431.207 2.788.344 4.145.894-.527.894-.527 1.307-.301-.069.301-.825.15-.413.452.482.377.207.528.138.83-.138.527-.482.075-.688.075.138.377.206.678.344.904.069.076.137.302.275 0 .275-.452.413-.075.62.151.205.302.274.528-.138.678-.07 0-.138 0-.138.151 0 .679 1.376 2.111 1.926 1.885.481-.226.963-.452 1.376-.83 1.031-.98 1.444-2.336 1.788-3.693.757-2.79 1.238-5.654 1.513-8.519.138-1.432.275-2.789.413-4.221-.069-.603.206-1.282.137-2.035zm-8.804 6.256c.138-.15.275-.452.482-.301.412.301.894.301 1.307.452 1.513.679 3.095 1.282 4.746.528.619-.302.756-.679.275-1.206-.413-.528-1.032-.679-1.651-.83-1.376-.301-2.82-.377-4.196.151-.413.226-.825.603-.963 1.206zm8.598-7.086c-1.307-1.13-5.159-1.206-7.497-.452 1.72 1.13 5.778 1.357 7.497.452z" fill="#000"/><path d="M54.895 55.365c-.384.272-.692.727-.692 1.272 0 .818-.77 1.091-.923 1.727-.077.182-.308.182-.23.455 0 .09.153.182.153.182.154-.091.23-.273.23-.455s.078-.273.309-.454c.077.545.23.909-.308 1.181-.385.182-.615.455-.692 1.091-.077.636-.616 1.182-1 1.727-.539.818-1.308 1.364-2.308 1.909.385-.727.462-1.273 0-1.818-.307-.364-.154-.364.154-.545 1-.364 1.692-1.273 2.384-2.182.231-.273 0-.363-.153-.454-.693-.364-1.462 0-1.846.909-.154.363-.231.545-.616.363.154-.182.231-.454.385-.636-1 1-2.462 1.272-3 2.909-.308.818-.692.727-1 0l.23-.273c.54-.727 1.155-1.364 1.847-2.273-1 .182-1.615.91-2.23 1.455-.231.182-.385.273-.54 0-.153-.364.078-.364.309-.455.769-.363 1.23-1.09 1.769-1.727.23-.272.538-.363.769-.272.538.181.846-.182 1-.637.23-.818.769-1.181 1.538-1.363-.461.636-.846 1.272-1.154 2.09.539-.363.846-.909 1.154-1.454 1.154-2 2.538-3.909 3.538-6.09.077-.182.308-.273.385-.364.23-.454.461.091.615 0 .077.364 0 .546-.307.636-.308.091-.539.091-.154.546.23.273-.154.727-.308 1-.923 1.545-1.615 3.181-2.615 4.636.077.09.154.09.154.181.769.546 1.307.182 1.538-.636.308-.818.923-1.363 1.23-2.181 0-.364.232-.091.385 0zM33.677 35.18c-.479.082-1.038-.164-1.676-.329-1.917-.41-3.673-1.066-5.43-1.804-.32-.165-.638-.165-.559-.657.08-.492.56-.41.879-.328.878.164 1.517.82 2.235 1.149 1.358.574 2.795.82 4.152 1.066 2.395.41 4.79.739 7.266.739 1.357 0 2.715.164 4.072 0 .718-.082 1.597 0 2.395.081 1.278.083 2.475-.246 3.673-.41.639-.082 1.277-.082 1.836-.082 1.916-.246 3.913-.246 5.67-1.23.319-.164.718-.246.798.082.08.328-.24.492-.56.656-1.995.82-4.071 1.067-6.147 1.23-1.517.083-2.954.657-4.471.575-1.358-.082-2.715.082-3.993-.082-.878-.082-1.836.164-2.714.164-1.437 0-2.875 0-4.312-.328-.958-.492-1.916-.575-3.114-.492z" fill="#000"/><path d="M49 62.323c-.976 1.245-2.244 2.012-4 1.533.585-.67 1.561-.766 2.244-1.437.098-.096.195-.191.293-.096.292 0 .487-.574.682-.191.196.287-.292.383-.39.67 0 .096-.097.192-.097.383.39-.383.78-.574 1.268-.862zM53 49c.172-.667.517-1.273 1.897-2 .517.91-1.035 1.394-1.897 2zm-8 13.19l-.23.27c-.385.725-.847 1.268-1.77 1.54.538-.815 1.154-1.267 1.692-1.901.077-.181.231-.09.308.09zm7.415-10.95c.174-.08.347-.16.347-.24.868.88-.868 1.28-1.563 2-.868-.8 1.39-1.12 1.216-1.76zM19 30.815c0 .592-.583 1.185-1 1.185-.333 0-1-.667-1-1.111 0-.445.583-.889 1.333-.889.584.074.584.518.667.815zM17.588 36c-.47 0-.588-.235-.588-.824 0-.588 0-1.176.941-1.176.588 0 1.059.118 1.059.824-.118.823-.588 1.058-1.412 1.176zM6 30c-.833.526-.833 1.126-1.5 1.652s-1 .376-1.667.075c-.166-.15-.5-.3-.666-.45-.334-.3-.167-.751.5-.751C3.833 30.45 5 30.376 6 30z" fill="#000"/></svg>